{
  "accessors": [
    {
      "bufferView": 0,
      "componentType": 5125,
      "count": 3162,
      "type": "SCALAR"
    },
    {
      "bufferView": 1,
      "componentType": 5126,
      "count": 751,
      "max": [
        0.04498382437110757,
        -0.05400589416332832,
        0.010399999737273772
      ],
      "min": [
        -0.04538221118241439,
        -0.0726973405636486,
        -0.010399999737273903
      ],
      "type": "VEC3"
    },
    {
      "bufferView": 2,
      "componentType": 5126,
      "count": 751,
      "max": [
        0.7398173003497366,
        0.9999999999942654,
        1.0
      ],
      "min": [
        -0.7192699138843028,
        -0.9999999144228611,
        -1.0
      ],
      "type": "VEC3"
    },
    {
      "bufferView": 3,
      "componentType": 5126,
      "count": 751,
      "max": [
        1.0,
        0.8099808926896027
      ],
      "min": [
        0.0,
        0.0
      ],
      "type": "VEC2"
    },
    {
      "bufferView": 4,
      "componentType": 5125,
      "count": 2724,
      "type": "SCALAR"
    },
    {
      "bufferView": 5,
      "componentType": 5126,
      "count": 648,
      "max": [
        0.060369982406893785,
        -0.019856718898898007,
        0.010399999737273834
      ],
      "min": [
        -0.060504185312987784,
        -0.05287272989654587,
        -0.010399999737273903
      ],
      "type": "VEC3"
    },
    {
      "bufferView": 6,
      "componentType": 5126,
      "count": 648,
      "max": [
        0.8483171323117856,
        0.9999200279468887,
        1.0
      ],
      "min": [
        -0.8554289051148094,
        -0.9999977368844256,
        -1.0
      ],
      "type": "VEC3"
    },
    {
      "bufferView": 7,
      "componentType": 5126,
      "count": 648,
      "max": [
        1.0,
        0.847398394076635
      ],
      "min": [
        0.0,
        0.0
      ],
      "type": "VEC2"
    },
    {
      "bufferView": 8,
      "componentType": 5125,
      "count": 4854,
      "type": "SCALAR"
    },
    {
      "bufferView": 9,
      "componentType": 5126,
      "count": 1147,
      "max": [
        0.06266424346941105,
        0.0726973405636486,
        0.010399999737273903
      ],
      "min": [
        -0.06266424346941103,
        -0.03231392872201397,
        -0.010399999737273903
      ],
      "type": "VEC3"
    },
    {
      "bufferView": 10,
      "componentType": 5126,
      "count": 1147,
      "max": [
        0.9999999123515463,
        0.9999999936257864,
        1.0
      ],
      "min": [
        -0.9999295236181363,
        -0.9999999777487395,
        -1.0
      ],
      "type": "VEC3"
    },
    {
      "bufferView": 11,
      "componentType": 5126,
      "count": 1147,
      "max": [
        1.0,
        0.5940850667753571
      ],
      "min": [
        0.0,
        0.0
      ],
      "type": "VEC2"
    }
  ],
  "asset": {
    "generator": "Adobe Illustrator",
    "version": "2.0"
  },
  "bufferViews": [
    {
      "buffer": 0,
      "byteLength": 12648,
      "target": 34963
    },
    {
      "buffer": 0,
      "byteLength": 9012,
      "byteOffset": 12648,
      "target": 34962
    },
    {
      "buffer": 0,
      "byteLength": 9012,
      "byteOffset": 21660,
      "target": 34962
    },
    {
      "buffer": 0,
      "byteLength": 6008,
      "byteOffset": 30672,
      "target": 34962
    },
    {
      "buffer": 0,
      "byteLength": 10896,
      "byteOffset": 36680,
      "target": 34963
    },
    {
      "buffer": 0,
      "byteLength": 7776,
      "byteOffset": 47576,
      "target": 34962
    },
    {
      "buffer": 0,
      "byteLength": 7776,
      "byteOffset": 55352,
      "target": 34962
    },
    {
      "buffer": 0,
      "byteLength": 5184,
      "byteOffset": 63128,
      "target": 34962
    },
    {
      "buffer": 0,
      "byteLength": 19416,
      "byteOffset": 68312,
      "target": 34963
    },
    {
      "buffer": 0,
      "byteLength": 13764,
      "byteOffset": 87728,
      "target": 34962
    },
    {
      "buffer": 0,
      "byteLength": 13764,
      "byteOffset": 101492,
      "target": 34962
    },
    {
      "buffer": 0,
      "byteLength": 9176,
      "byteOffset": 115256,
      "target": 34962
    }
  ],
  "buffers": [
    {
      "byteLength": 124432,
      "uri": "data:application/octet-stream;base64,"
    }
  ],
  "images": [
    {
      "name": "BaseColor",
      "uri": "data:image/png;base64,"
    },
    {
      "name": "BaseColor",
      "uri": "data:image/png;base64,"
    },
    {
      "name": "BaseColor",
      "uri": "data:image/png;base64,"
    }
  ],
  "materials": [
    {
      "doubleSided": true,
      "pbrMetallicRoughness": {
        "baseColorTexture": {
          "index": 0
        },
        "metallicFactor": 0.0,
        "roughnessFactor": 0.0
      }
    },
    {
      "doubleSided": true,
      "pbrMetallicRoughness": {
        "baseColorTexture": {
          "index": 1
        },
        "metallicFactor": 0.0,
        "roughnessFactor": 0.0
      }
    },
    {
      "doubleSided": true,
      "pbrMetallicRoughness": {
        "baseColorTexture": {
          "index": 2
        },
        "metallicFactor": 0.0,
        "roughnessFactor": 0.0
      }
    }
  ],
  "meshes": [
    {
      "primitives": [
        {
          "attributes": {
            "NORMAL": 2,
            "POSITION": 1,
            "TEXCOORD_0": 3
          },
          "indices": 0,
          "material": 0,
          "mode": 4
        }
      ]
    },
    {
      "primitives": [
        {
          "attributes": {
            "NORMAL": 6,
            "POSITION": 5,
            "TEXCOORD_0": 7
          },
          "indices": 4,
          "material": 1,
          "mode": 4
        }
      ]
    },
    {
      "primitives": [
        {
          "attributes": {
            "NORMAL": 10,
            "POSITION": 9,
            "TEXCOORD_0": 11
          },
          "indices": 8,
          "material": 2,
          "mode": 4
        }
      ]
    }
  ],
  "nodes": [
    {
      "mesh": 0
    },
    {
      "mesh": 1
    },
    {
      "mesh": 2
    }
  ],
  "samplers": [
    {
      "magFilter": 9729,
      "minFilter": 9729,
      "wrapS": 10497,
      "wrapT": 10497
    },
    {
      "magFilter": 9729,
      "minFilter": 9729,
      "wrapS": 10497,
      "wrapT": 10497
    },
    {
      "magFilter": 9729,
      "minFilter": 9729,
      "wrapS": 10497,
      "wrapT": 10497
    }
  ],
  "scenes": [
    {
      "nodes": [
        0,
        1,
        2
      ]
    }
  ],
  "textures": [
    {
      "sampler": 0,
      "source": 0
    },
    {
      "sampler": 1,
      "source": 1
    },
    {
      "sampler": 2,
      "source": 2
    }
  ]
}
