<svg width="155" height="179" viewBox="0 0 155 179" fill="none" xmlns="http://www.w3.org/2000/svg">
<path d="M134.315 154.137C112.704 178.119 75.0781 184.805 45.6835 172.205C35.8355 168.054 26.858 161.94 19.8451 154.137C28.6983 159.679 37.9245 164.103 47.5486 167.035C76.7691 176.231 108.626 170.738 134.29 154.137H134.315ZM2.78527 129.259C4.45147 132.043 6.81398 134.428 9.72359 136.094C51.4032 160.151 102.757 160.151 144.436 136.094C147.346 134.404 149.709 132.043 151.375 129.259C103.528 108.184 50.6075 108.209 2.76041 129.259H2.78527ZM144.436 35.8625L86.816 2.60954C80.7978 -0.869846 73.387 -0.869846 67.3688 2.60954L9.72359 35.8625C3.70541 39.3419 0 45.7539 0 52.7126V119.243C0 122.623 0.895267 125.879 2.48685 128.737C15.891 119.517 31.0857 113.154 46.9766 109.65V84.2756C46.9766 81.2187 48.618 78.3855 51.254 76.8446L72.7902 64.4183C75.4511 62.8774 78.7089 62.8774 81.3698 64.4183L102.906 76.8446C105.567 78.3855 107.183 81.2187 107.183 84.2756V109.65C123.074 113.179 138.269 119.542 151.673 128.737C153.265 125.879 154.16 122.623 154.16 119.243V52.7126C154.16 45.7539 150.455 39.3419 144.436 35.8625Z" fill="black"/>
<path d="M134.315 154.137C112.704 178.119 75.0781 184.805 45.6835 172.205C35.8355 168.054 26.858 161.94 19.8451 154.137C28.6983 159.679 37.9245 164.103 47.5486 167.035C76.7691 176.231 108.626 170.738 134.29 154.137H134.315ZM2.78527 129.259C4.45147 132.043 6.81398 134.428 9.72359 136.094C51.4032 160.151 102.757 160.151 144.436 136.094C147.346 134.404 149.709 132.043 151.375 129.259C103.528 108.184 50.6075 108.209 2.76041 129.259H2.78527ZM144.436 35.8625L86.816 2.60954C80.7978 -0.869846 73.387 -0.869846 67.3688 2.60954L9.72359 35.8625C3.70541 39.3419 0 45.7539 0 52.7126V119.243C0 122.623 0.895267 125.879 2.48685 128.737C15.891 119.517 31.0857 113.154 46.9766 109.65V84.2756C46.9766 81.2187 48.618 78.3855 51.254 76.8446L72.7902 64.4183C75.4511 62.8774 78.7089 62.8774 81.3698 64.4183L102.906 76.8446C105.567 78.3855 107.183 81.2187 107.183 84.2756V109.65C123.074 113.179 138.269 119.542 151.673 128.737C153.265 125.879 154.16 122.623 154.16 119.243V52.7126C154.16 45.7539 150.455 39.3419 144.436 35.8625Z" fill="#868585"/>
<path d="M134.315 154.137C112.704 178.119 75.0781 184.805 45.6835 172.205C35.8355 168.054 26.858 161.94 19.8451 154.137C28.6983 159.679 37.9245 164.103 47.5486 167.035C76.7691 176.231 108.626 170.738 134.29 154.137H134.315ZM2.78527 129.259C4.45147 132.043 6.81398 134.428 9.72359 136.094C51.4032 160.151 102.757 160.151 144.436 136.094C147.346 134.404 149.709 132.043 151.375 129.259C103.528 108.184 50.6075 108.209 2.76041 129.259H2.78527ZM144.436 35.8625L86.816 2.60954C80.7978 -0.869846 73.387 -0.869846 67.3688 2.60954L9.72359 35.8625C3.70541 39.3419 0 45.7539 0 52.7126V119.243C0 122.623 0.895267 125.879 2.48685 128.737C15.891 119.517 31.0857 113.154 46.9766 109.65V84.2756C46.9766 81.2187 48.618 78.3855 51.254 76.8446L72.7902 64.4183C75.4511 62.8774 78.7089 62.8774 81.3698 64.4183L102.906 76.8446C105.567 78.3855 107.183 81.2187 107.183 84.2756V109.65C123.074 113.179 138.269 119.542 151.673 128.737C153.265 125.879 154.16 122.623 154.16 119.243V52.7126C154.16 45.7539 150.455 39.3419 144.436 35.8625Z" fill="white"/>
</svg>
