<svg id="Capa_1" data-name="Capa 1" xmlns="http://www.w3.org/2000/svg" viewBox="0 0 378.76 287.65"><defs><style>.cls-1{fill:#5eb609;}</style></defs><path class="cls-1" d="M93.69,361.72V299.94c0-2-.21-1.91,1.83-1.91h85.89c1.54,0,1.55,0,1.55,1.57v18.75c0,1.62,0,1.63-1.64,1.63H120.17c-2.63,0-2.3-.33-2.3,2.38q0,13.25,0,26.48c0,.42,0,.84,0,1.26,0,.59.23.87.84.85s.94,0,1.42,0h59.56c1.55,0,1.56,0,1.56,1.55v18c0,1.6,0,1.6-1.65,1.6H120c-2.41,0-2.15-.29-2.15,2.21q0,13.56,0,27.11c0,.42,0,.85,0,1.26,0,.64.2,1,.9,1,.47,0,.94,0,1.42,0H181c2.13,0,2-.2,2,1.94V423.7c0,.42,0,.84,0,1.26a.56.56,0,0,1-.59.59c-.42,0-.84,0-1.26,0H94.89c-1.17,0-1.2,0-1.2-1.27,0-4.58,0-9.15,0-13.72Z" transform="translate(-93.68 -140.25)"/><path class="cls-1" d="M272.45,339.76c0-2.29,0-4.27,0-6.24,0-2.36-.27-2.1,2.1-2.11q9.93,0,19.85,0h1.11c.51,0,.79.2.77.74,0,.36,0,.73,0,1.1v90.63c0,1.48,0,1.5-1.45,1.5H274.51c-2.35,0-2,.24-2.06-2.14,0-1.68,0-3.36,0-5,0-.29.11-.62-.27-1-12,9.6-25.73,12.54-40.67,9.57a47.69,47.69,0,0,1-29.26-18.3,49.54,49.54,0,0,1,2.4-63.12C220.71,327.22,251.36,322.44,272.45,339.76Zm.35,38.95a28.71,28.71,0,1,0-29.21,28.45C260.63,407.4,273,393.65,272.8,378.71Z" transform="translate(-93.68 -140.25)"/><path d="M229.52,186.41c10.65-10.2,23.11-14.57,37.41-13.45a46.92,46.92,0,0,1,32.66,16.31A48.36,48.36,0,0,1,297.87,255C280,273.3,249,275,229.52,255.92c-.47.22-.23.64-.24,1,0,3.05,0,6.1,0,9.14,0,1.32.09,1.33-1.25,1.33H212.58c-1.28,0-1.28,0-1.29-1.28,0-.21,0-.42,0-.63q0-61.62,0-123.23c0-2.19-.35-1.93,1.89-1.94H228c1.76,0,1.53-.05,1.53,1.52v44.64Zm-.81,34.8a32.06,32.06,0,1,0,32-32.07A31.9,31.9,0,0,0,228.71,221.21Z" transform="translate(-93.68 -140.25)"/><path d="M175.67,255.41c-1.33,1.21-2.35,2.19-3.43,3.09a45.77,45.77,0,0,1-28.1,10.85,48.57,48.57,0,0,1-26.06-5.91c-12-6.72-19.23-17.06-22.47-30.31a57,57,0,0,1-1.54-13.58q0-38.85,0-77.7c0-.31,0-.63,0-.94,0-.48.21-.67.66-.66H111.9c1.56,0,1.38-.13,1.38,1.48,0,5.1,0,10.19,0,15.29v61.3A38.43,38.43,0,0,0,116.66,235c4.62,9.76,12.28,15.52,23,17,9.55,1.3,18.15-1,25.38-7.56,5.28-4.79,8.27-10.88,9.67-17.81a45.41,45.41,0,0,0,.74-9.09q0-37.66,0-75.33c0-2.17-.31-1.92,1.92-1.93h15.75c1.28,0,1.19,0,1.18,1.21V265.33c0,2.38.28,2-2,2-5.14,0-10.29,0-15.44,0-1.18,0-1.2,0-1.2-1.22,0-2.94,0-5.88,0-8.82Z" transform="translate(-93.68 -140.25)"/><path class="cls-1" d="M470.15,361.43a2.34,2.34,0,0,1-1.43.19H448.07c-1.47,0-1.5,0-1.89-1.41-1.57-5.76-5.4-9.25-11-10.82a38.22,38.22,0,0,0-13.89-1.1,24.79,24.79,0,0,0-6.6,1.37,10.78,10.78,0,0,0-4.09,2.58,7.12,7.12,0,0,0-2,4.53,5.59,5.59,0,0,0,3.13,5.56,23.32,23.32,0,0,0,6.63,2.44c6.1,1.32,12.22,2.53,18.32,3.81,5.24,1.1,10.52,2,15.58,3.8A36.85,36.85,0,0,1,465.38,380a21.09,21.09,0,0,1,6.86,13.3c1.31,12.25-3.68,21.41-14,27.8a45.24,45.24,0,0,1-16.54,5.78,73.64,73.64,0,0,1-15.69.89c-7.43-.35-14.73-1.42-21.65-4.33-12.18-5.12-19.43-14.25-22-27.16-.23-1.14-.21-1.17.88-1.18,7.2,0,14.4,0,21.59,0,1.13,0,1.28.62,1.54,1.37a15.75,15.75,0,0,0,9.77,10.21,25.88,25.88,0,0,0,5.33,1.35,51.83,51.83,0,0,0,14.29.28c3.35-.44,6.61-1.23,9.34-3.4a7.2,7.2,0,0,0,2.95-6.3,5.27,5.27,0,0,0-2.11-4.05,12.82,12.82,0,0,0-4.07-2c-3.8-1.2-7.74-1.86-11.61-2.81-7.54-1.85-15.18-3.28-22.65-5.39a42,42,0,0,1-15.31-7.49,21.68,21.68,0,0,1-8.31-17,27.63,27.63,0,0,1,2.35-12.42,27,27,0,0,1,12.31-12.63A47.05,47.05,0,0,1,414,329.86a74.24,74.24,0,0,1,14-.92,64,64,0,0,1,20.24,3.4,33.34,33.34,0,0,1,15.43,10.74,31.91,31.91,0,0,1,6.1,14.18A28.08,28.08,0,0,1,470.15,361.43Z" transform="translate(-93.68 -140.25)"/><path d="M413.37,227H338.54a12.11,12.11,0,0,0,.67,3.76,30.79,30.79,0,0,0,26.26,22.44c11.93,1.24,21.72-2.88,29.34-12.14.83-1,.68-1.18,1.93-.25,3.58,2.66,7.19,5.29,10.79,7.92,1.53,1.1,1.4.88.35,2.19A46.88,46.88,0,0,1,381.1,268.1c-13,3-25.51,1.54-37.16-5.08-13.13-7.47-20.9-18.88-23.32-33.76-2.21-13.52.43-26.06,8.66-37.13a46.26,46.26,0,0,1,31.13-18.74c22.45-3.47,44.94,9.34,51.32,34.19a52.15,52.15,0,0,1,1.64,13.57C413.36,223,413.37,224.92,413.37,227ZM394.89,212.5c-3.07-14.85-16.17-25.5-31.84-23.32a27.42,27.42,0,0,0-17.5,9.68,30.91,30.91,0,0,0-6.71,13.64Z" transform="translate(-93.68 -140.25)"/><path class="cls-1" d="M324.51,378.56V355.08c0-.36,0-.73,0-1.1,0-1.18,0-1.2-1.27-1.21H308.43c-.36,0-.73,0-1.1,0-.6,0-.86-.26-.83-.85,0-.37,0-.74,0-1.1v-17.5c0-.31,0-.63,0-.94-.07-.75.25-1.07,1-1,.42,0,.84,0,1.26,0h14.49c1.43,0,1.45,0,1.45-1.48v-23c0-.37,0-.74,0-1.1,0-1.15,0-1.18,1.11-1.18q10.72,0,21.43,0c1.18,0,1.2,0,1.2,1.42v23.64c0,1.84-.15,1.72,1.68,1.72h23.16c.37,0,.74,0,1.11,0,.62,0,.84.28.81.86,0,.21,0,.42,0,.63v18.44c0,1.44,0,1.46-1.48,1.46H350.39c-.37,0-.74,0-1.1,0-.6,0-.89.23-.86.84,0,.31,0,.63,0,.94q0,20.64,0,41.29c0,.62.06,1.25.12,1.88.31,3.5,2.74,5.57,6.16,6.14a20.69,20.69,0,0,0,3.61.29c5,0,10,0,15,0h1.1c.5,0,.8.19.78.74,0,.26,0,.52,0,.78v18.12c0,.27,0,.53,0,.79,0,.62-.28.85-.86.82h-.47q-12.84,0-25.68,0a25.9,25.9,0,0,1-10.7-2.27c-7.76-3.52-12-9.6-12.78-18.06-.36-3.83-.14-7.66-.17-11.5C324.48,388.54,324.51,383.55,324.51,378.56Z" transform="translate(-93.68 -140.25)"/><path d="M444,185.62c.67-.31.8-.8,1.07-1.16a24.29,24.29,0,0,1,20.06-10.36c2.05,0,4.1,0,6.15,0,.73,0,1,.19,1,1q0,7.56,0,15.13c0,.69-.22.92-.9.91-2,0-4,0-6,0-10.24-.29-17.67,6-20.19,15.79a32.74,32.74,0,0,0-1,8.26q0,25.14,0,50.28c0,2.22.28,1.91-1.91,1.92h-15c-1.46,0-1.36,0-1.35-1.4V176.89a10.07,10.07,0,0,0,0-1.1c-.11-.86.29-1.06,1.08-1,5.31,0,10.61,0,15.92,0,.92,0,1,.38,1,1.12C443.94,179.05,444,182.25,444,185.62Z" transform="translate(-93.68 -140.25)"/></svg>